<svg width="150" height="72" viewBox="0 0 150 72" fill="none" xmlns="http://www.w3.org/2000/svg">
  <path d="M46.2565 47.0737H55.7611V50.1793H51.2397V71.9999H46.2565V47.0737Z" fill="#0079C2"/>
  <path d="M61.3962 62.6424L62.2502 50.1793H62.5362L63.3903 62.6424H61.3962ZM55.8777 71.9999H60.7567L61.2184 65.3802H63.568L64.0318 71.9999H68.9088L66.3099 47.0737H58.4765L55.8777 71.9999Z" fill="#0079C2"/>
  <path d="M76.0454 63.2758V67.975C76.0454 68.6083 76.5358 68.7922 76.8218 68.7922C77.2917 68.7922 77.6186 68.404 77.6186 67.975V62.1725C77.6186 61.3961 77.4756 60.538 75.6164 60.538H73.5936V57.8002H75.6981C77.1078 57.8002 77.6186 57.4733 77.6186 55.9409V50.9965C77.6186 50.5675 77.2917 50.1793 76.8218 50.1793C76.5358 50.1793 76.0454 50.3428 76.0454 50.9965V55.0624H71.0602V51.5278C71.0602 49.7911 71.2645 47.0737 74.7582 47.0737H78.8854C82.3791 47.0737 82.6039 49.7911 82.6039 51.5278V55.5119C82.6039 58.2292 80.7037 58.9647 79.2123 58.9035V59.1486C82.563 59.0669 82.6039 61.6413 82.6039 62.5198V67.5459C82.6039 69.303 82.3791 71.9999 78.8854 71.9999H74.7582C71.2645 71.9999 71.0602 69.303 71.0602 67.5459V63.2758H76.0454Z" fill="#0079C2"/>
  <path d="M85.8729 47.0737H97.4166V71.9999H92.4314V50.1793H90.8582V71.9999H85.8729V47.0737Z" fill="#0079C2"/>
  <path d="M105.671 60.7831V50.1793H106.325C106.856 50.1793 107.244 50.6288 107.244 51.4256V59.5368C107.244 60.3337 106.856 60.7831 106.325 60.7831H105.671ZM100.686 71.9999H105.671V63.5209H108.531C112.005 63.5209 112.229 60.824 112.229 59.0669V51.5278C112.229 49.7911 112.005 47.0737 108.531 47.0737H100.686V71.9999Z" fill="#0079C2"/>
  <path d="M122.057 67.975C122.057 68.404 121.73 68.7922 121.26 68.7922C120.974 68.7922 120.484 68.6083 120.484 67.975V50.9965C120.484 50.3428 120.974 50.1793 121.26 50.1793C121.73 50.1793 122.057 50.5675 122.057 50.9965V67.975ZM115.498 67.5459C115.498 69.303 115.723 71.9999 119.196 71.9999H123.344C126.817 71.9999 127.042 69.303 127.042 67.5459V51.5278C127.042 49.7911 126.817 47.0737 123.344 47.0737H119.196C115.723 47.0737 115.498 49.7911 115.498 51.5278V67.5459Z" fill="#0079C2"/>
  <path d="M143.264 47.0737H149.761V71.9999H144.776V56.37H144.592L142.018 71.9999H138.034L135.48 56.37H135.296V71.9999H130.311V47.0737H136.787L140.036 64.6038L143.264 47.0737Z" fill="#0079C2"/>
  <path d="M39.7964 12.9943C38.2702 6.31327 34.4455 0.878547 33.9183 0C33.0847 1.24631 30.0343 6.04766 28.4836 11.3598C26.7899 17.3053 26.5406 22.5766 27.1249 27.7457C27.7052 32.9352 29.8975 38.2678 29.8975 38.2678C31.062 41.0465 32.8069 44.0499 33.9429 45.5209C35.608 43.3552 39.4348 36.8989 40.628 28.4812C41.292 23.782 41.3206 19.6753 39.7964 12.9943ZM33.9183 43.8456C33.1685 42.4358 32.0039 39.7593 31.8936 35.5913C31.865 31.5868 33.4729 28.1339 33.9429 27.4188C34.3617 28.1339 35.7469 31.1373 35.9124 35.244C36.0248 39.2485 34.6927 42.4154 33.9183 43.8456ZM39.3531 24.3337C39.2959 26.8876 38.9914 29.5845 38.6032 31.1986C38.7422 28.42 38.4091 24.5176 37.7717 21.4529C37.1342 18.4086 35.3301 13.3008 33.8897 10.9512C32.5597 13.1986 30.9211 17.6118 30.063 21.4324C29.2008 25.2531 29.1762 29.891 29.1762 31.2803C28.9474 30.1157 28.3753 25.9273 28.5367 21.7389C28.6716 18.286 29.4807 14.7105 29.924 13.076C31.6157 7.62088 33.5301 4.12712 33.8897 3.57547C34.2493 4.12712 36.6602 8.43812 37.9106 12.9534C39.1549 17.4688 39.4062 21.8002 39.3531 24.3337Z" fill="#0079C2"/>
  <path d="M36.5067 47.0738H24.9037V54.8581C24.9139 54.8581 24.9221 54.8377 24.9323 54.8377C27.666 52.0999 32.0996 52.0999 34.8354 54.8377C37.5691 57.5551 37.5691 61.9887 34.8354 64.7265C34.8231 64.7469 34.8109 64.7469 34.7986 64.7673C34.7843 64.7673 34.77 64.7878 34.7577 64.8082C32.0302 67.5051 28.4669 68.8536 24.9037 68.8536C21.3242 68.8536 17.7446 67.5051 15.015 64.7673C10.2013 59.966 9.63132 52.5085 13.3008 47.0738C13.7952 46.3383 14.3653 45.6436 15.015 44.9898C17.7446 42.252 21.3242 40.9035 24.9037 40.9035V22.1885C11.1494 22.1885 0 33.3235 0 47.0738C0 60.8241 11.1494 71.9796 24.9037 71.9796C32.0751 71.9796 38.5355 68.9353 43.0794 64.0931V47.0738H36.5067Z" fill="#0079C2"/>
</svg>