<svg width="77" height="94" viewBox="0 0 77 94" fill="none" xmlns="http://www.w3.org/2000/svg">
  <path d="M65.1514 11.846C58.3305 5.02584 48.9108 0.808998 38.5008 0.808594C28.0899 0.808998 18.6703 5.02584 11.8491 11.846C5.02812 18.6672 0.811279 28.087 0.811279 38.4977C0.811279 48.9083 5.02812 58.3278 11.8489 65.1488C18.6703 71.9695 28.0899 76.1862 38.5002 76.1866C48.9104 76.1862 58.3303 71.9689 65.1512 65.1488C71.9724 58.3272 76.1886 48.9077 76.189 38.4977C76.1893 28.087 71.9726 18.6672 65.1514 11.846Z" fill="white"/>
  <path d="M0 38.5015C0.000404494 17.2359 17.2375 0 38.4999 0V0.404494V0.808987C28.0911 0.808987 18.6708 5.02684 11.8486 11.8482C5.02725 18.67 0.809392 28.0907 0.808785 38.5013C0.809392 48.9104 5.02725 58.33 11.8486 65.1516C18.6708 71.973 28.0911 76.1902 38.4999 76.1902C48.9087 76.1902 58.329 71.9726 65.1512 65.1516C71.9728 58.33 76.1906 48.9101 76.1906 38.5013C76.1906 28.0907 71.9728 18.67 65.1512 11.8482C58.329 5.02684 48.9087 0.808987 38.4999 0.808987V0.404494V0C59.7625 0 76.9996 17.2359 77 38.5015C76.9996 59.7635 59.7625 76.9998 38.4999 77C17.2375 76.9998 0.000404494 59.7635 0 38.5015Z" fill="#C5C9CC"/>
  <path d="M38.5008 27.5096L38.7609 27.437C25.8144 31.4548 15.5704 38.3385 15.3607 43.3936C15.1354 48.8045 26.4891 50.0738 40.7134 46.2299C54.937 42.3858 66.6547 34.8807 66.8798 29.4701C66.9959 26.6662 64.0011 24.975 59.1099 24.5303C65.0881 24.7976 68.8319 26.5394 68.8319 29.651C68.8319 35.5796 55.249 44.236 38.5004 48.9835C21.7515 53.7301 8.16821 52.7706 8.16821 46.8417C8.16882 40.9135 21.7519 32.2563 38.5008 27.5096Z" fill="#A0A4A7"/>
  <path d="M14.1113 58.6843L56.1609 18.3169L52.3483 50.0498L45.3961 42.0886L14.1113 58.6843Z" fill="#E63F3F"/>
  <path d="M2.70787 88.4527C3.45052 88.4527 3.97475 88.3364 4.28034 88.0743C4.58614 87.8265 4.74652 87.4042 4.74652 86.822C4.74652 85.7155 4.04735 85.1621 2.63506 85.1621H1.87765V88.4529H2.70787V88.4527ZM2.67855 89.1371H1.87765V92.9084H1.10608V84.4771H2.56205C3.49401 84.4771 4.2223 84.6519 4.77544 85.0159C5.31423 85.3656 5.57634 85.9628 5.57634 86.7635C5.57634 87.6953 5.31423 88.3073 4.77544 88.6418C4.23666 88.9767 3.53769 89.1371 2.67855 89.1371ZM10.8479 92.4719C11.5467 92.4719 12.1583 92.3116 12.7262 91.9768C13.2943 91.6565 13.7311 91.2055 14.0515 90.6517C14.3864 90.0836 14.5464 89.4579 14.5464 88.7587C14.5464 88.1473 14.4155 87.565 14.1387 86.9824C13.8618 86.3997 13.4397 85.9193 12.8865 85.5405C12.3332 85.1621 11.6632 84.9726 10.8768 84.9726C10.3237 84.9726 9.75557 85.1037 9.1731 85.3806C8.60519 85.657 8.12445 86.0793 7.74604 86.6474C7.36723 87.2157 7.17793 87.9145 7.17793 88.7006C7.17793 89.3707 7.32375 89.9966 7.62935 90.5648C7.94971 91.1327 8.38656 91.5984 8.95447 91.9338C9.52258 92.2968 10.1487 92.4719 10.8479 92.4719ZM10.8479 93.1272C10.0614 93.1272 9.31871 92.9523 8.63451 92.6174C7.93555 92.2679 7.3822 91.7582 6.97447 91.0884C6.56674 90.4183 6.34831 89.6176 6.34831 88.6855C6.34831 87.797 6.56674 87.0256 7.00359 86.3556C7.42589 85.7003 7.99379 85.1904 8.70732 84.8262C9.40608 84.4624 10.1487 84.2874 10.9059 84.2874C11.576 84.2874 12.173 84.4039 12.7116 84.6371C13.2504 84.8555 13.7166 85.1759 14.1095 85.5836C14.5175 85.9766 14.8233 86.4573 15.0415 86.9961C15.2599 87.5642 15.3618 88.1315 15.3618 88.7437C15.3618 89.617 15.1725 90.389 14.7648 91.0588C14.3571 91.7287 13.8037 92.2383 13.1193 92.588C12.4349 92.9523 11.6777 93.1272 10.8479 93.1272ZM20.8371 84.9726C20.1088 84.9726 19.4537 85.1326 18.9149 85.4386C18.3616 85.7448 17.9538 86.1813 17.6626 86.7344C17.3568 87.3173 17.2112 87.9724 17.2112 88.7152C17.2112 89.8656 17.5461 90.7832 18.2014 91.4524C18.8567 92.1225 19.7306 92.4576 20.8081 92.4576C21.7399 92.4576 22.6427 92.1227 23.5019 91.4524V92.3411C23.1087 92.5888 22.6864 92.7634 22.235 92.8942C21.7545 93.0398 21.2739 93.0983 20.7643 93.0983C20.0944 93.0983 19.4248 92.9818 18.7695 92.7338C18.1142 92.4865 17.5461 92.0353 17.0801 91.38C16.5996 90.7393 16.3666 89.8656 16.3666 88.7587C16.3666 87.958 16.527 87.2153 16.8328 86.5305C17.1238 85.8605 17.6191 85.3221 18.2888 84.9142C18.9734 84.4919 19.8325 84.288 20.8516 84.288C21.7983 84.288 22.7157 84.5791 23.5749 85.1911L23.5456 86.0211C23.2252 85.7588 22.8612 85.5112 22.4389 85.2928C22.002 85.0744 21.4778 84.9726 20.8371 84.9726ZM24.827 92.9088V84.4775H25.5988V88.4242L29.3994 84.4775H30.4042L26.4142 88.5261L30.6078 92.9092H29.5011L25.5986 88.6422V92.9092L24.827 92.9088ZM35.7629 92.4719C36.4475 92.4719 37.0734 92.3116 37.6413 91.9768C38.1943 91.6565 38.6457 91.2055 38.9661 90.6517C39.2864 90.0836 39.4614 89.4579 39.4614 88.7587C39.4614 88.1473 39.3155 87.565 39.0532 86.9824C38.7622 86.3997 38.3545 85.9193 37.8011 85.5405C37.233 85.1621 36.5781 84.9726 35.7916 84.9726C35.2235 84.9726 34.6558 85.1037 34.0879 85.3806C33.5052 85.657 33.0249 86.0793 32.6461 86.6474C32.2677 87.2157 32.0781 87.9145 32.0781 88.7006C32.0781 89.3707 32.2383 89.9966 32.5441 90.5648C32.8499 91.1327 33.2868 91.5984 33.8694 91.9338C34.4232 92.2968 35.0639 92.4719 35.7629 92.4719ZM35.7629 93.1272C34.9765 93.1272 34.2337 92.9523 33.5497 92.6174C32.8505 92.2679 32.2974 91.7582 31.8895 91.0884C31.4672 90.4183 31.2633 89.6176 31.2633 88.6855C31.2633 87.797 31.4817 87.0256 31.904 86.3556C32.3409 85.7003 32.909 85.1904 33.6077 84.8262C34.3213 84.4624 35.0496 84.2874 35.8211 84.2874C36.491 84.2874 37.0882 84.4039 37.6268 84.6371C38.1656 84.8555 38.6311 85.1759 39.0247 85.5836C39.4177 85.9766 39.7235 86.4573 39.9419 86.9961C40.1603 87.5642 40.2768 88.1315 40.2768 88.7437C40.2768 89.617 40.073 90.389 39.6654 91.0588C39.2579 91.7287 38.7189 92.2383 38.0347 92.588C37.3499 92.9523 36.5929 93.1272 35.7629 93.1272ZM45.752 84.9726C45.0094 84.9726 44.3687 85.1326 43.8155 85.4386C43.2768 85.7448 42.8545 86.1813 42.5636 86.7344C42.2722 87.3173 42.1268 87.9724 42.1268 88.7152C42.1268 89.8656 42.4471 90.7832 43.117 91.4524C43.7717 92.1225 44.6308 92.4576 45.7084 92.4576C46.6551 92.4576 47.5581 92.1227 48.4173 91.4524L48.4029 92.3411C48.0099 92.5888 47.5876 92.7634 47.1358 92.8942C46.6694 93.0398 46.1747 93.0983 45.6653 93.0983C45.01 93.0983 44.3398 92.9818 43.6701 92.7338C43.0148 92.4865 42.4615 92.0353 41.9957 91.38C41.515 90.7393 41.2824 89.8656 41.2824 88.7587C41.2824 87.958 41.4278 87.2153 41.7334 86.5305C42.0396 85.8605 42.5199 85.3221 43.2043 84.9142C43.874 84.4919 44.7331 84.288 45.7672 84.288C46.7137 84.288 47.6164 84.5791 48.4755 85.1911L48.4613 86.0211C48.141 85.7588 47.7622 85.5112 47.3399 85.2928C46.9176 85.0744 46.3782 84.9726 45.752 84.9726ZM53.6591 93.2144L50.7033 86.4721L50.0625 92.9084H49.276L50.4264 84.1133L53.6591 91.627L57.0085 84.1133L58.1006 92.9084H57.2995L56.6881 86.4721L53.6591 93.2144ZM63.1825 92.4719C63.8671 92.4719 64.493 92.3116 65.0466 91.9768C65.6143 91.6565 66.0511 91.2055 66.3861 90.6517C66.7064 90.0836 66.8668 89.4579 66.8668 88.7587C66.8668 88.1473 66.7358 87.565 66.4591 86.9824C66.1822 86.3997 65.7599 85.9193 65.2066 85.5405C64.6532 85.1621 63.9836 84.9726 63.197 84.9726C62.6437 84.9726 62.0756 85.1037 61.5079 85.3806C60.9252 85.657 60.4449 86.0793 60.0661 86.6474C59.6877 87.2157 59.4981 87.9145 59.4981 88.7006C59.4981 89.3707 59.6438 89.9966 59.9641 90.5648C60.2699 91.1327 60.7068 91.5984 61.2745 91.9338C61.843 92.2968 62.4692 92.4719 63.1825 92.4719ZM63.1825 93.1272C62.3818 93.1272 61.6533 92.9523 60.9545 92.6174C60.2699 92.2679 59.7166 91.7582 59.2943 91.0884C58.8866 90.4183 58.6829 89.6176 58.6829 88.6855C58.6829 87.797 58.8868 87.0256 59.3236 86.3556C59.7605 85.7003 60.3286 85.1904 61.0273 84.8262C61.7265 84.4624 62.4692 84.2874 63.2264 84.2874C63.896 84.2874 64.5078 84.4039 65.032 84.6371C65.5708 84.8555 66.0366 85.1759 66.4445 85.5836C66.8375 85.9766 67.1433 86.4573 67.3617 86.9961C67.5801 87.5642 67.6966 88.1315 67.6966 88.7437C67.6966 89.617 67.4928 90.389 67.0852 91.0588C66.6771 91.7289 66.1383 92.2383 65.4396 92.588C64.755 92.9523 63.9977 93.1272 63.1825 93.1272ZM73.1719 84.9726C72.4292 84.9726 71.7885 85.1326 71.2351 85.4386C70.6964 85.7448 70.2741 86.1813 69.9834 86.7344C69.692 87.3173 69.532 87.9724 69.532 88.7152C69.532 89.8656 69.8669 90.7832 70.5222 91.4524C71.1919 92.1225 72.051 92.4576 73.1286 92.4576C74.0603 92.4576 74.9634 92.1227 75.8373 91.4524L75.8227 92.3411C75.4297 92.5888 75.0074 92.7634 74.5558 92.8942C74.0896 93.0398 73.5947 93.0983 73.0853 93.0983C72.4152 93.0983 71.76 92.9818 71.0901 92.7338C70.4349 92.4865 69.8671 92.0353 69.401 91.38C68.9348 90.7393 68.6876 89.8656 68.6876 88.7587C68.6876 87.958 68.8476 87.2153 69.1534 86.5305C69.4596 85.8605 69.9404 85.3221 70.6244 84.9142C71.294 84.4919 72.1531 84.288 73.1872 84.288C74.1337 84.288 75.0364 84.5791 75.8955 85.1911L75.8666 86.0211C75.5604 85.7588 75.182 85.5112 74.7597 85.2928C74.3374 85.0744 73.798 84.9726 73.1719 84.9726Z" fill="#A0A4A7" stroke="#A0A4A7" stroke-width="0.216" stroke-miterlimit="2.4142"/>
</svg>