<svg width="103" height="57" viewBox="0 0 103 57" fill="none" xmlns="http://www.w3.org/2000/svg">
  <path fill-rule="evenodd" clip-rule="evenodd" d="M2.34907 15.4267L2.41637 22.9941C3.35272 19.0097 5.35758 15.3559 8.2153 12.4257C8.45023 12.1601 8.71822 11.9263 8.98621 11.6938L2.34907 15.4267ZM36.7767 46.7589C37.5476 46.7589 38.1509 47.3256 38.1839 48.0599C38.1839 48.6265 37.8156 49.1271 37.3127 49.3266L25.4456 56.2931C25.0773 56.5269 24.6074 56.5599 24.206 56.3262L12.908 49.7268L12.875 49.6938L0.639617 42.8264C0.455836 42.724 0.302913 42.5741 0.196803 42.3924C0.0906921 42.2107 0.0352807 42.0038 0.0363487 41.7934L0.136697 28.6927L0.00329288 14.827C-0.0309435 14.3937 0.203989 13.9605 0.605381 13.7279L12.071 7.26075L24.1045 0.192715C24.474 -0.0410364 24.9427 -0.0740923 25.3453 0.159659L36.6421 6.75901H36.6752C37.112 6.99277 37.38 7.39298 37.38 7.89236C37.38 8.62667 36.8097 9.22639 36.0388 9.22639C35.7278 9.23 35.4233 9.13675 35.1676 8.95959C33.5478 8.08965 31.8242 7.42877 30.038 6.99277C28.1746 6.53213 26.2585 6.31937 24.3394 6.35998C18.2713 6.49339 12.8407 9.0257 8.95315 13.0597C6.95689 15.1233 5.38748 17.5606 4.33485 20.2319C3.28223 22.9032 2.76708 25.7559 2.81894 28.6266C2.87492 31.4956 3.4992 34.3251 4.65567 36.9513C5.81213 39.5775 7.47783 41.9484 9.55642 43.9267C13.7668 47.9434 19.3927 50.1356 25.2107 50.0267C27.1297 49.9911 29.0354 49.6997 30.8774 49.1602C32.7061 48.6203 34.462 47.8591 36.1061 46.8935L36.1392 46.8604C36.3068 46.8262 36.5406 46.7601 36.7767 46.7601V46.7589ZM2.44942 33.5944L2.38331 41.1618L9.0535 44.8948L8.88586 44.7271C5.76917 41.7285 3.4895 37.894 2.44942 33.5944ZM18.2383 50.1259L24.7751 53.9592L31.3461 50.0916L31.11 50.1589C29.1998 50.7256 27.1893 51.0255 25.1776 51.0585C22.8295 51.1209 20.4866 50.806 18.2383 50.1259ZM31.2788 6.35998L24.7078 2.52551L18.1379 6.39186C20.1341 5.814 22.195 5.48916 24.2722 5.42498C26.2815 5.39573 28.2866 5.61984 30.2399 6.09199C30.6082 6.19116 30.9435 6.25727 31.2788 6.3588V6.35998Z" fill="#0B7572"/>
  <path fill-rule="evenodd" clip-rule="evenodd" d="M31.3466 16.3261C31.9157 16.626 32.1176 17.3591 31.8153 17.9258C31.5143 18.4924 30.7764 18.6931 30.2062 18.3933C29.3399 17.9207 28.4161 17.562 27.4579 17.3261C26.5028 17.0985 25.5237 16.9867 24.5419 16.9931C21.5548 17.0485 18.7107 18.2825 16.6297 20.4262C14.6192 22.4922 13.4458 25.3256 13.4788 28.4257C13.5081 29.8998 13.8282 31.3536 14.4208 32.7037C15.0134 34.0538 15.8668 35.2736 16.932 36.293C17.9996 37.3208 19.2603 38.1269 20.6412 38.6647C22.0221 39.2025 23.496 39.4613 24.9775 39.4262C25.6481 39.4262 26.184 39.9268 26.184 40.5926C26.184 41.2596 25.6811 41.7932 25.0106 41.7932C21.3842 41.8658 17.8767 40.499 15.2556 37.9918C13.9596 36.7605 12.9216 35.2836 12.2021 33.6471C11.4825 32.0106 11.0959 30.2473 11.0646 28.46C11.0299 26.6707 11.3499 24.8923 12.0059 23.2274C12.662 21.5624 13.6413 20.0439 14.8872 18.7593C16.132 17.4676 17.6196 16.4346 19.2647 15.7194C20.9097 15.0043 22.6798 14.6211 24.4734 14.5919C25.6709 14.5585 26.8671 14.6937 28.0269 14.9933C29.1673 15.3262 30.3066 15.7594 31.3466 16.3261Z" fill="#0B7572"/>
  <path fill-rule="evenodd" clip-rule="evenodd" d="M15.5571 15.259C15.7908 15.0937 16.0931 15.1598 16.2607 15.3924C16.4283 15.6261 16.361 15.926 16.1261 16.0925C14.125 17.4844 12.5011 19.3517 11.4003 21.5266C10.3098 23.6972 9.7579 26.0984 9.7912 28.5273C9.85849 32.6263 11.6352 36.3262 14.3836 38.96L14.4167 38.993C15.8283 40.3458 17.4945 41.4049 19.3186 42.1087C21.1427 42.8125 23.0885 43.1471 25.0429 43.0931C26.3488 43.062 27.645 42.8604 28.8986 42.4934C30.1382 42.1274 31.3459 41.6269 32.4852 40.9268C32.7201 40.7934 33.0554 40.8595 33.1888 41.0921C33.3234 41.3258 33.2561 41.6588 33.0212 41.7933C31.8245 42.5113 30.54 43.0716 29.1997 43.4603C27.8597 43.8593 26.4844 44.06 25.0771 44.0931C20.856 44.1884 16.7694 42.6061 13.713 39.6931L13.68 39.6601C12.1616 38.2257 10.9461 36.5015 10.1054 34.5893C9.26469 32.6772 8.81584 30.6159 8.78536 28.5273C8.71807 25.8935 9.35557 23.3258 10.4948 21.026C11.7111 18.7364 13.4444 16.7618 15.5571 15.259Z" fill="#0B7572"/>
  <path fill-rule="evenodd" clip-rule="evenodd" d="M20.0827 28.7601C20.0496 28.7601 20.0154 28.5263 20.0154 28.2595C20.0154 27.9927 20.0496 27.7601 20.0827 27.7601H24.2383V23.1595C24.2383 23.1264 24.4744 23.0934 24.7424 23.0934C25.0103 23.0934 25.2453 23.1264 25.2453 23.1595V27.7601H29.4009C29.4363 27.7601 29.4693 27.9927 29.4693 28.2595C29.4693 28.5263 29.4351 28.7601 29.402 28.7601H25.2453V33.3595C25.2453 33.3926 25.0103 33.4268 24.7424 33.4268C24.4744 33.4268 24.2394 33.3926 24.2394 33.3595V28.7601H20.0827ZM57.1217 17.3239H41.8806C41.3021 17.3239 40.9562 17.514 40.9562 18.2377V37.1338C40.9562 37.8575 41.3033 38.0476 41.8806 38.0476H45.0363C45.6525 38.0476 45.9595 37.8575 45.9595 37.1338V21.7428H53.0417V37.1338C53.0417 37.8575 53.3876 38.0476 53.9649 38.0476H57.1217C57.699 38.0476 58.0449 37.8575 58.0449 37.1338V18.2377C58.0449 17.514 57.699 17.3239 57.1217 17.3239ZM77.366 39.6862C77.366 40.4099 77.7119 40.5999 78.2904 40.5999H80.9065C81.485 40.5999 81.8309 40.4099 81.8309 39.6862V34.2768C81.8309 33.7054 81.6385 33.3619 80.9065 33.3619H79.3682V18.2389C79.3682 17.514 79.0223 17.3239 78.445 17.3239H66.2427C65.6654 17.3239 65.3195 17.514 65.3195 18.2377L64.3184 31.2664C64.2417 32.447 63.9336 33.3619 62.2017 33.3619C61.4697 33.3619 61.2785 33.7043 61.2785 34.2768V39.6862C61.2785 40.4099 61.6244 40.5999 62.2017 40.5999H64.8579C65.4352 40.5999 65.7811 40.4099 65.7811 39.6862V37.7052H77.405V39.6862H77.366ZM69.2071 31.532L70.0146 21.5893H74.5563V33.5897H67.9369C68.7066 33.3229 69.1292 32.6748 69.2071 31.532ZM100.035 27.3032C100.304 27.1899 102.344 26.1605 102.344 22.9989C102.344 20.0652 100.113 17.3228 94.9541 17.3228H86.0644C85.3325 17.3228 85.1412 17.6651 85.1412 18.2365V37.1326C85.1412 37.704 85.3336 38.0464 86.0644 38.0464H95.4168C99.8439 38.0464 103 35.9898 103 31.9901C103.016 31.005 102.745 30.0366 102.218 29.2039C101.692 28.3712 100.933 27.7105 100.036 27.3032H100.035ZM95.4546 33.552H90.1067V21.7428H94.9552C96.6104 21.7428 97.6115 22.0852 97.6115 23.4959C97.6115 24.7143 96.8028 25.3612 94.9552 25.3612H94.5314C93.7995 25.3612 93.6082 25.7048 93.6082 26.2762V28.6762C93.6082 29.2476 93.8006 29.5912 94.5314 29.5912H95.2634C96.8028 29.5912 97.9196 30.0481 97.9196 31.4954C97.9196 32.9428 97.0342 33.5532 95.4558 33.5532L95.4546 33.552Z" fill="#0B7572"/>
</svg>